<?xml version="1.0" encoding="UTF-8"?><svg id="Layer_1" xmlns="http://www.w3.org/2000/svg" viewBox="0 0 225.78 207.06"><defs><style>.cls-1,.cls-2{fill:#77eee7;stroke-width:0px;}.cls-2{opacity:.5;}</style></defs><polygon class="cls-1" points="174.08 51.77 122.31 51.77 104.2 0 155.96 0 174.08 51.77"/><polygon class="cls-2" points="155.96 103.53 104.2 103.53 122.31 51.77 174.08 51.77 155.96 103.53"/><polygon class="cls-1" points="225.78 155.3 174.01 155.3 155.89 103.53 207.66 103.53 225.78 155.3"/><polygon class="cls-2" points="207.66 207.06 155.89 207.06 174.01 155.3 225.78 155.3 207.66 207.06"/><polygon class="cls-1" points="69.88 51.77 18.12 51.77 0 0 51.77 0 69.88 51.77"/><polygon class="cls-2" points="51.77 103.53 0 103.53 18.12 51.77 69.88 51.77 51.77 103.53"/><polygon class="cls-1" points="121.93 155.3 70.16 155.3 52.04 103.53 103.81 103.53 121.93 155.3"/><polygon class="cls-2" points="103.81 207.06 52.04 207.06 70.16 155.3 121.93 155.3 103.81 207.06"/></svg>