<?xml version="1.0" encoding="UTF-8"?><svg id="Layer_1" xmlns="http://www.w3.org/2000/svg" viewBox="0 0 512 512"><defs><style>.cls-1,.cls-2{fill:none;stroke:#77eee7;stroke-miterlimit:10;}.cls-2{stroke-width:3px;}</style></defs><rect class="cls-2" x="38.14" y="179.42" width="171.48" height="276.58"/><rect class="cls-2" x="22.55" y="179.42" width="202.66" height="276.58"/><rect class="cls-2" x="54.14" y="245.8" width="139.48" height="30.86"/><circle class="cls-2" cx="123.88" cy="335.75" r="15.13"/><circle class="cls-2" cx="77.06" cy="366.08" r="15.13"/><circle class="cls-2" cx="170.7" cy="366.08" r="15.13"/><polygon class="cls-2" points="225.65 179.42 23.03 179.42 17.49 154.27 230.27 154.27 225.65 179.42"/><polygon class="cls-2" points="230.27 481.15 17.49 481.15 23.03 456 225.65 456 230.27 481.15"/><path class="cls-2" d="M54.14,482.4h32.82v18.93c0,4.25-3.45,7.7-7.7,7.7h-17.41c-4.25,0-7.7-3.45-7.7-7.7v-18.93h0Z"/><rect class="cls-2" x="54.34" y="134.07" width="38.04" height="20.2"/><rect class="cls-2" x="54.34" y="125.39" width="38.04" height="8.68"/><rect class="cls-2" x="54.34" y="116.71" width="38.04" height="8.68"/><rect class="cls-2" x="56.96" y="79.95" width="32.82" height="36.76"/><rect class="cls-2" x="66.25" y="55.6" width="14.22" height="24.35"/><circle class="cls-2" cx="323.49" cy="426.88" r="74.97"/><circle class="cls-2" cx="328.81" cy="422.91" r="74.97"/><circle class="cls-2" cx="333.73" cy="418.93" r="74.97"/><circle class="cls-2" cx="338.65" cy="414.95" r="74.97"/><circle class="cls-2" cx="343.57" cy="410.97" r="74.97"/><path class="cls-2" d="M73.37,57.02c0-28.87,23.41-52.28,52.28-52.28h70.6c28.87,0,52.28,23.41,52.28,52.28v369.86"/><rect class="cls-2" x="403.71" y="297.34" width="29" height="15.43"/><rect class="cls-2" x="403.71" y="182.11" width="29" height="115.23"/><circle class="cls-2" cx="418.54" cy="106.15" r="75.97"/><circle class="cls-1" cx="418.54" cy="106.15" r="75.97"/><ellipse class="cls-1" cx="418.54" cy="106.15" rx="75.97" ry="65.69"/><ellipse class="cls-1" cx="418.54" cy="106.15" rx="75.97" ry="55.42"/><ellipse class="cls-1" cx="418.54" cy="106.15" rx="75.97" ry="45.15"/><ellipse class="cls-1" cx="418.54" cy="106.15" rx="75.97" ry="34.88"/><ellipse class="cls-1" cx="418.54" cy="106.15" rx="75.97" ry="24.61"/><ellipse class="cls-1" cx="418.54" cy="106.15" rx="75.97" ry="14.34"/><ellipse class="cls-1" cx="418.54" cy="106.15" rx="75.97" ry="4.07"/><circle class="cls-1" cx="418.54" cy="106.15" r="75.97"/><ellipse class="cls-1" cx="418.54" cy="106.15" rx="65.69" ry="75.97"/><ellipse class="cls-1" cx="418.54" cy="106.15" rx="55.42" ry="75.97"/><ellipse class="cls-1" cx="418.54" cy="106.15" rx="45.15" ry="75.97"/><ellipse class="cls-1" cx="418.54" cy="106.15" rx="34.88" ry="75.97"/><ellipse class="cls-1" cx="418.54" cy="106.15" rx="24.61" ry="75.97"/><ellipse class="cls-1" cx="418.54" cy="106.15" rx="14.34" ry="75.97"/><ellipse class="cls-1" cx="418.54" cy="106.15" rx="4.07" ry="75.97"/><line class="cls-2" x1="418.54" y1="410.97" x2="418.54" y2="313.46"/></svg>