<?xml version="1.0" encoding="UTF-8"?><svg id="Layer_1" xmlns="http://www.w3.org/2000/svg" viewBox="0 0 512 512"><defs><style>.cls-1{fill:none;stroke:#77eee7;stroke-miterlimit:10;stroke-width:3px;}</style></defs><path class="cls-1" d="M61.32,450.68c37.72,37.72,57.33,52.81,62.99,52.43,5.66-.38,85.24-62.61,165.2-142.57s100.7-196.51,100.7-196.51l3.58-9.99,17.73-17.73-1.51-1.51c19.99-35.83,67.2-80.09,67.2-80.09v-1.19h1.26l12.07-12.07.31.31,12.26-12.26s-2.52-5.53-8.8-11.82c-6.29-6.29-11.82-8.8-11.82-8.8l-12.26,12.26.31.31-12.07,12.07v1.26h-1.19s-44.25,47.21-80.09,67.2l-1.51-1.51-17.73,17.73-9.99,3.58s-116.55,20.74-196.51,100.7C71.5,302.45,9.27,382.03,8.9,387.69s14.71,25.27,52.43,62.99Z"/><path class="cls-1" d="M470.55,21.46s2.92,1.79,10.56,9.43c7.64,7.64,9.43,10.56,9.43,10.56"/><line class="cls-1" x1="458.48" y1="34.79" x2="477.21" y2="53.52"/><polyline class="cls-1" points="359.57 119.81 377.29 102.08 410.82 135.6"/><line class="cls-1" x1="357.96" y1="118.2" x2="393.8" y2="154.04"/><line class="cls-1" x1="347.97" y1="121.79" x2="390.21" y2="164.03"/><path class="cls-1" d="M74.33,437.67c-16.41-16.41-30.74-75.24-17.35-96.18,13.39-20.93,110.13-119.56,147.28-147.66,37.15-28.1,96.18-18.48,114.28-.38,18.1,18.1,27.72,77.13-.38,114.28-28.1,37.15-126.73,133.89-147.66,147.28-20.93,13.39-79.77-.94-96.18-17.35Z"/><line class="cls-1" x1="362.84" y1="123.08" x2="380.57" y2="105.36"/><line class="cls-1" x1="366.12" y1="126.36" x2="383.84" y2="108.63"/><line class="cls-1" x1="369.39" y1="129.63" x2="387.12" y2="111.91"/><line class="cls-1" x1="372.67" y1="132.91" x2="390.39" y2="115.18"/><line class="cls-1" x1="375.94" y1="136.18" x2="393.67" y2="118.46"/><line class="cls-1" x1="379.22" y1="139.46" x2="396.94" y2="121.73"/><line class="cls-1" x1="382.49" y1="142.73" x2="400.22" y2="125.01"/><line class="cls-1" x1="385.77" y1="146.01" x2="403.49" y2="128.28"/><line class="cls-1" x1="389.04" y1="149.28" x2="406.77" y2="131.56"/><line class="cls-1" x1="392.32" y1="152.56" x2="410.04" y2="134.83"/><path class="cls-1" d="M201.34,196.1s44.61-.19,79.69,34.88"/><path class="cls-1" d="M315.9,310.66s.19-44.61-34.88-79.69"/><path class="cls-1" d="M188.98,440.1s-42.92-13.31-73.34-43.73c-30.42-30.42-43.73-73.34-43.73-73.34"/><rect class="cls-1" x="126.34" y="233.81" width="131.22" height="171.98" rx="4.44" ry="4.44" transform="translate(282.35 -42.06) rotate(45)"/><path class="cls-1" d="M56.19,398.71s32.03-2.59,45.74,11.11,9.99,45.63,9.99,45.63"/></svg>