<?xml version="1.0" encoding="UTF-8"?><svg id="Layer_1" xmlns="http://www.w3.org/2000/svg" viewBox="0 0 512 512"><defs><style>.cls-1,.cls-2,.cls-3{fill:none;stroke:#77eee7;stroke-linejoin:round;}.cls-2{stroke-width:3px;}.cls-3{stroke-width:2px;}</style></defs><path class="cls-2" d="M303.68,3.94h64.6s12.37-.22,16.04,2.82c3.67,3.05,5.82,9.68,9.59,33.51,3.29,20.88,5.76,33.92,6.81,43.7.15,1.39.27,2.7.36,3.97.71,10.22-1.17,25.99-1.17,25.99,0,0-5.46,8.96-5.37,10.3s6.82,1.71,6.71,7.55c-.05,2.6-.5,10.21-.96,17.88-.59,9.63-1.24,19.35-1.24,19.35l-6.12,6.25-.54,3.49s7.8,1.69,7.39,9.21c-.23,4.33-.79,12.14-1.24,17.99-.32,4.34-.58,7.61-.58,7.61l-.47,8.47-6.72,5.24.2,6.52s7.05,2.83,7.05,6.65-.33,20.97-.33,20.97l-.11.81-1.84,13.37-6.58,5.84-.2,13.85s9.54,5.78,9.54,12.7c0,.16,0,.37,0,.6-.1,9.46-2.21,72.72-2.21,72.72l-1.54,52.62-2.76,41.46-1.07,20.23s-1.28,12.03-17.07,12.03-221.22,2.01-221.22,2.01c0,0-18.55-1.07-19.22-14.78-.67-13.7-3.23-70.09-3.23-70.09l-1.14-24.46-4.57-91.73s-.67-5.24,2.55-7.86c3.23-2.62,8.67-8.4,8.67-8.4l-.47-8.47-6.99-6.72-1.11-13.38-.77-9.2v-16.46s2.36-1.81,6.12-2.49l.2-6.18-7.86-8.06-.66-9.68-1.56-22.98s.2-6.52,7.66-8.2l-.33-3.42-7.32-6.32-.73-19.91-.69-18.86s2.15-5.11,6.05-5.98l-.26-2.29-5.78-12.43-.4-18.31,1.2-7.87,4.98-32.69,6.45-40.18s3.9-8.07,13.77-8.07,71.57-.6,71.57-.6l1.81,4.03,81.25.02,1.87-3.65"/><path class="cls-3" d="M218.75,3.56l1.15,13.24s.47,5.31,6.78,9.48c6.32,4.17,8.13,5.24,8.13,5.24,0,0,4.17,2.82,5.18,10.02,1.01,7.19,2.62,20.09,2.62,20.09,0,0,1.08,5.31,7.32,5.31h25.67s4.91-1.41,5.38-6.25c.47-4.84,2.08-21.23,2.08-21.23,0,0,1.07-5.37,5.92-8.6,4.84-3.23,10.01-7.32,10.01-7.32,0,0,3.09-2.02,3.43-6.92.32-4.75,1.21-12.17,1.26-12.63,0-.01,0-.02,0-.02"/><path class="cls-3" d="M121.48,85.18s.17-.03.5-.08c2.4-.35,13.15-1.28,23.57,7.41,11.82,9.86,14.51,11.29,16.12,21.86,1.62,10.57,16.49,134.76,16.49,134.76,0,0,1.25,16.31-10.4,27.06-11.65,10.75-43.29,32.39-43.29,32.39"/><path class="cls-3" d="M400.72,83.96s-11.43-.65-20.16,5.81c-8.74,6.45-14.11,10.21-17.07,30.37-2.96,20.16-15.99,124.46-15.99,124.46,0,0-4.3,19.35,13.7,33.6,17.87,14.13,37,30.12,37.29,30.36h0"/><path class="cls-1" d="M127.22,125.99s12.11-2.93,18.72-2.43c.11,0,.22.01.32.03l5.02,24.01s.1,1.43-.54,2.58c-.39.69-1.05,1.26-2.15,1.37-2.96.27-12.45,0-12.45,0,0,0-7.17.81-7.08,12.37.1,11.56.86,13.15.86,13.15"/><path class="cls-1" d="M130.25,180.49s14.13-2.96,22.29-1.52c0,0,.26.05.69.25,1.31.6,4.1,2.62,4.78,8.8.9,8.15,1.43,14.7,1.43,14.7,0,0,.24,1.06-.37,2.05-.46.73-1.38,1.43-3.21,1.62-4.3.45-16.59,0-16.59,0,0,0-7.33,1.43-7.06,9.05.26,7.62.47,13.98.47,13.98"/><path class="cls-1" d="M145.97,123.51s0,.02-.03.06c-.19.6-1.7,5.46-.44,11.69,1.35,6.66,5.25,14.92,5.25,14.92,0,0-5.11-5.08-15.23-5.18-10.12-.09-13.65,5.83-13.65,5.83"/><path class="cls-1" d="M159.06,204.76h-.01c-.29-.32-5.29-5.35-18.07-4.91-13.17.45-16.83,11.82-16.83,11.82"/><path class="cls-1" d="M153.22,179.22s-1.4,7.81-.69,12.83c.7,4.89,6.24,12.33,6.51,12.69"/><path class="cls-1" d="M166.12,260.08c-.07.28-.14.51-.24.69-.99,1.88-19.62,1.25-19.62,1.25,0,0-12.27.54-11.73,7.98.54,7.44.69,13.84.69,13.84"/><path class="cls-1" d="M132.46,235.59s9.59-1.61,16.04-1.61c4.63,0,10.43.83,13.32,1.3,1.13.18,1.82.31,1.82.31,0,0,1.97,7.8,2.24,11.56.24,3.41.86,10.27.24,12.93"/><path class="cls-1" d="M161.83,235.28s-1.23,7.75-.69,12.14c.53,4.31,4.84,12.38,4.99,12.66h0s-8.03-5.31-21.26-4.68c-13.22.63-17.75,8.34-17.75,8.34"/><path class="cls-1" d="M373.31,148.89c.86.92,2.43,1.77,5.3,1.96,6.86.47,14.98-.54,14.78,7.32-.2,7.86-.47,17.07-.47,17.07"/><path class="cls-1" d="M394.54,124.22l-13.77-3s-.88-.05-1.95.37c-1.51.59-3.41,2.13-3.84,6.09-.74,6.79-2.69,18.54-2.69,18.54,0,0-.18,1.41,1.02,2.67"/><path class="cls-1" d="M373.31,148.89c.29-.17,7.4-4.34,14.64-4.01,7.39.33,12.33,4.77,12.33,4.77"/><path class="cls-1" d="M373.31,148.89h0"/><line class="cls-1" x1="373.31" y1="148.89" x2="373.31" y2="148.89"/><path class="cls-1" d="M378.82,121.59s3.08,7.16,2.61,12.47c-.46,5.23-7.89,14.54-8.12,14.83"/><path class="cls-1" d="M392.39,178.74l-18.5-2.73s-.93.11-2.14.55c-2.11.77-5.05,2.55-5.27,6.48-.36,6.18-1.64,17.48-1.64,17.48,0,0-.22,2.05,1.39,3.44.76.66,1.92,1.18,3.72,1.26,5.58.27,16.33.54,16.33.54,0,0,5.65.94,5.25,8-.4,7.06-.74,13.51-.74,13.51"/><path class="cls-1" d="M371.74,176.57s1.38,8.58.67,13.69c-.72,5.1-5.94,13.62-5.94,13.62,0,0,6.7-4.77,16.91-4.3,10.06.46,15.01,6.19,15.16,6.37h0"/><path class="cls-1" d="M390.98,233.78l-21.78-1.88s-1.58-.19-3.39.14c-2.22.41-4.78,1.6-5.14,4.9-.67,5.98-2.75,19.09-2.75,19.09,0,0,.16,1.87,2.21,3.27,1.12.77,2.82,1.41,5.38,1.5,7.2.27,19.29.67,19.29.67,0,0,5.71.88,5.11,8-.61,7.12-.74,11.96-.74,11.96"/><path class="cls-1" d="M365.81,232.04s2.25,7.65,1.11,12.89-6.79,14.36-6.79,14.36c0,0,9.55-4.14,20.51-3.87,10.95.26,16.95,6.79,16.95,6.79"/><path class="cls-3" d="M334.31,284.51c8.98-69.38,22.06-169.2,22.06-169.2,0,0-.94-20.43-20.83-20.43h-152.27s-19.08,2.69-16.26,24.87c1.88,14.76,15.36,112.5,24.15,176.16.29,2.07.56,4.09.84,6.08,1.21,8.76,2.31,16.74,3.26,23.61,2.17,15.72,3.55,25.62,3.55,25.62,0,0,1.62,11.56,11.78,11.56h21.69l5.37-10.57h50.08l4.71,10.21h23.96s8.51-1.35,9.68-13.13c.2-2.09,1.29-10.79,2.94-23.69.5-3.92,1.05-8.22,1.65-12.85.28-2.18.56-4.43.86-6.75.62-4.79,1.27-9.86,1.96-15.15.27-2.08.54-4.2.82-6.35Z"/><polygon class="cls-2" points="193.88 116.12 192.95 186.4 331.64 185.73 330.83 116.12 193.88 116.12"/><path class="cls-1" d="M191.16,295.91s30.81-10.86,38.34-24.7c7.53-13.84,8.33-15.55,9.54-23.03,1.21-7.48,11.02-39.6,43.55-39.2,32.53.4,41.13,28.32,41.26,43.46h-6.05s-5.64-33.65-34.81-33.65-34.27,29.03-34,35.21,1.35,37.5,37.23,37.5v10.48h-94.21"/><polyline class="cls-1" points="334.31 284.51 307.32 260.59 292.67 278.2 330.67 312.75"/><polyline class="cls-1" points="331.53 306 300.86 278.6 308.12 269.6 333.49 290.86"/><circle class="cls-1" cx="284.09" cy="255.17" r="11.85"/><path class="cls-1" d="M290.41,255.19c0,3.6-2.92,6.52-6.52,6.52s-6.52-2.91-6.52-6.52,2.91-6.51,6.52-6.51,6.52,2.91,6.52,6.51Z"/><polyline class="cls-1" points="195.26 325.6 329.02 325.6 329.03 325.6"/><path class="cls-1" d="M217.13,335.66c0,2.58-2.09,4.67-4.67,4.67s-4.67-2.09-4.67-4.67,2.09-4.67,4.67-4.67,4.67,2.09,4.67,4.67Z"/><path class="cls-3" d="M232.28,362.78l-3.95,9.63h-21.95s-14.52-2.87-16.85-20.97c-2.32-18.1-7.97-66.93-7.97-66.93,0,0-1.71-6.45-8.34-4.21l-26.97,20.34s-2.42.71-2.06,10.66,3.58,94.44,3.58,94.44l3.95,88.53s-.18,7.05,9.05,7.05h209.48s3.23-3.11,3.5-7.05c.26-3.95,4.12-84.85,4.12-96.41s2.24-92.56,2.24-92.56c0,0-.18-3.05-3.05-5.38-2.86-2.32-25.35-18.9-25.35-18.9,0,0-7.17-4.11-8.07,5.65-.9,9.76-8.34,66.29-8.34,66.29,0,0-4.03,18.9-20.25,18.9s-16.67.27-16.67.27l-5.95-9.72"/><path class="cls-1" d="M176.75,307.63c0,4.78-4.24,8.66-9.47,8.66s-9.48-3.88-9.48-8.66,4.24-8.67,9.48-8.67,9.47,3.88,9.47,8.67Z"/><path class="cls-1" d="M179.6,331.91c0,4.78-4.24,8.67-9.47,8.67s-9.48-3.89-9.48-8.67,4.24-8.67,9.48-8.67,9.47,3.88,9.47,8.67Z"/><path class="cls-1" d="M364.83,331.91c0,4.78-4.24,8.67-9.47,8.67s-9.48-3.89-9.48-8.67,4.24-8.67,9.48-8.67,9.47,3.88,9.47,8.67Z"/><path class="cls-1" d="M182.47,355.26c0,4.78-4.24,8.67-9.47,8.67s-9.48-3.89-9.48-8.67,4.25-8.67,9.48-8.67,9.47,3.88,9.47,8.67Z"/><rect class="cls-1" x="229.96" y="376.37" width="11.29" height="8.33"/><rect class="cls-1" x="244.07" y="376.37" width="11.29" height="8.33"/><rect class="cls-1" x="257.75" y="376.37" width="11.29" height="8.33"/><rect class="cls-1" x="271.64" y="376.37" width="11.29" height="8.33"/><rect class="cls-1" x="285.48" y="376.37" width="11.29" height="8.33"/><path class="cls-3" d="M168.84,376.37s-3.32-.16-3.32,4.17.81,18.75.81,18.75c0,0,.18,3.27,3.27,3.27s186.77-.22,186.77-.22c0,0,2.55-.63,2.55-2.55s.94-20.83.94-20.83c0,0-.72-2.58-3.5-2.58h-16.93s-2.6-.11-3.04,2.94c-.45,3.04-1.26,11.56-1.26,11.56,0,0-1.35,2.87-4.12,2.87h-136.28s-3.76-.02-4.3-4.27-1.07-10.16-1.07-10.16c0,0,.09-2.91-3.68-2.94-3.76-.02-16.84,0-16.84,0Z"/><line class="cls-1" x1="228.33" y1="372.41" x2="298.4" y2="372.14"/><polygon class="cls-1" points="290.16 439.96 290.16 474.19 348.75 474.19 349.65 439.96 290.16 439.96"/><polyline class="cls-1" points="349.65 439.96 348.75 434.24 289.12 434.24 290.16 439.96"/><polyline class="cls-1" points="289.12 434.24 289.12 471.46 290.16 474.19"/><path class="cls-1" d="M306.39,444.29l-5.25-.07s-6.41,1.16-6.37,7.21c.05,6.05,0,10.62,0,10.62l8.79,7.53h31.27l9.36-7.48v-9.81s.71-7.66-6.36-7.66c-1.36,0-2.91,0-4.53-.02-.81,0-1.64,0-2.47-.01-3.59-.03-7.2-.07-9.59-.11-1.71-.02-2.78-.03-2.78-.03l-2.68-.03-9.19-.12"/><polygon class="cls-1" points="306.39 444.29 304.13 444.29 304.13 445.52 304.13 450.05 306.6 450.05 306.6 444.29 306.39 444.29"/><polyline class="cls-1" points="315.78 444.41 315.78 460.03 321.25 460.03 321.25 444.48"/><polyline class="cls-1" points="330.83 444.59 330.83 449.87 333.3 449.87 333.3 444.61"/><path class="cls-1" d="M253.6,467.85c0,16.06-16.1,29.09-35.97,29.09s-35.98-13.03-35.98-29.09,16.1-29.09,35.98-29.09,35.97,13.03,35.97,29.09Z"/><polygon class="cls-1" points="195.29 466.18 201.28 469.81 211.12 456.21 205.86 452.73 195.29 466.18"/><polygon class="cls-1" points="234.46 469.08 239.28 464 228.09 451.49 223.57 455.88 234.46 469.08"/><polygon class="cls-1" points="215.23 475.52 215.54 489.77 219.98 489.52 219.67 475.27 215.23 475.52"/></svg>