<?xml version="1.0" encoding="UTF-8"?><svg id="Layer_1" xmlns="http://www.w3.org/2000/svg" viewBox="0 0 512 512"><defs><style>.cls-1{stroke-width:2px;}.cls-1,.cls-2,.cls-3,.cls-4{fill:none;stroke:#77eee7;stroke-miterlimit:10;}.cls-1,.cls-2,.cls-4{stroke-linecap:round;}.cls-2,.cls-3{stroke-width:3px;}</style></defs><path class="cls-3" d="M238.91,22.17c.13-11.45,5.2-17.68,17.05-19.24,13.13-1.73,25.79.74,38.23,4.61,11.26,3.5,21.83,8.54,30.92,16.17,5.46,4.58,10.49,9.69,15.72,14.55,4.25,3.96,8.54,7.86,12.7,11.91.77.75,1.33,2.07,1.37,3.16.11,2.49-.18,4.99-.25,7.49-.08,3.04,2.41,5.5,5.49,5.53,3.39.03,6.79.15,10.18.16,2.33,0,3.16,1.4,3.23,3.41.08,2.41.15,4.84-.02,7.25-.49,7.03,1.29,13.4,5.17,19.26,2.17,3.27,3.04,6.88,2.98,10.89-.23,16.02.03,32.04-.43,48.05-.4,13.84-4,26.92-11.36,38.81-3.34,5.39-7.55,9.96-13.02,13.26-2.5,1.51-4.1,3.52-4.53,6.54-.68,4.76-3.31,7.42-8.31,8.28-10.03,1.72-19.94,4.21-29.98,5.81-7.04,1.13-14.23,1.34-21.36,1.93-3.4.28-5.5,2.53-6.34,5.36-2.89,9.76-3.92,19.79-3.44,29.96.15,3.22.28,6.44.32,9.66.06,4.36-1.85,7.53-5.9,9.3-1.47.64-3,1.18-4.41,1.94-.78.42-1.67,1.08-1.99,1.85-.99,2.36-2.61,3.82-5.12,4.21-3.06.48-4.95,1.68-4.92,5.31.01,1.63-1.5,3.27-2.04,4.37.22,1.81.77,3.36.53,4.78-1.78,10.37-3.71,20.72-5.62,31.07-2.79,15.09-5.65,30.17-8.42,45.26-1.79,9.73-3.22,19.53-5.32,29.19-1.77,8.11-2.31,16.32-3.17,24.51-.36,3.46.04,6.95,2.27,9.67,3.92,4.78,3.06,9.87,1.59,15.08-3.65,12.93-7.38,25.83-11,38.77-.61,2.18-1.78,3.55-3.64,4.91-4.49,3.27-8.88,3.91-14.43,2.61-24.37-5.67-48.85-10.82-73.28-16.25-1.17-.26-2.24-1.25-3.19-2.08-.72-.63-1.07-1.66-1.76-2.33-4.9-4.79-2.64-10.42-1.82-15.81,1.45-9.54,3.05-19.05,4.74-28.55.23-1.3,1.33-2.43,1.99-3.67.32-.6.59-1.24.81-1.88.36-1.06.66-2.14,1.05-3.44-1.62-.42-2.12-1.42-.67-3.2,5.84-7.15,6.84-16.09,8.93-24.62.85-3.47,1.66-6.94,2.61-10.38.27-.97,1.16-1.78,1.37-2.75.23-1.03-.19-2.2.02-3.24.26-1.26.86-2.45,1.35-3.66.36-.88.97-1.7,1.13-2.61.51-3.02.69-6.1,1.33-9.09.7-3.31,1.71-6.56,2.68-9.8.29-.98.9-1.86,1.37-2.79.16-.31.53-.63.5-.91-.4-3.26.26-6.2,2.47-8.72-.52-6.8,2.79-12.81,4.07-19.23.18-.89.99-1.64,1.29-2.53.36-1.07.52-2.21.72-3.33.1-.57,0-1.19.18-1.72,2.95-8.42,4.63-17.2,7.17-25.73,2.57-8.64,4.71-17.41,7.21-26.08,2.94-10.22.47-18.63-8.33-24.7-4.43-3.06-7.01-7.21-9.01-11.97-6.34-15.1-12.61-30.23-19.11-45.26-3.39-7.83-2.87-15.59-.94-23.59,4.46-18.46,8.73-36.97,13.14-55.44,4.09-17.17,8.47-34.28,12.33-51.5,2.74-12.24,9.94-20.94,19.68-28.29,7.1-5.35,14.89-7.77,23.57-8.35,7.92-.52,15.82-1.42,23.7-2.14Z"/><polyline class="cls-3" points="188.21 60.72 161.07 176.53 284.89 179.11 310.33 58.6"/><path class="cls-3" d="M276.02,171.1l-102.32-1.14c-1.45,0-2.63-1.22-2.63-2.71l22.18-96.35c0-1.5,1.18-2.71,2.63-2.71l102.32-2.29c1.45,0,2.63,1.22,2.63,2.71l-22.18,99.78c0,1.5-1.18,2.71-2.63,2.71Z"/><path class="cls-3" d="M310.33,58.6l-122.13,2.12c3.73-15.61,32.23-19,32.23-19,0,0,72.94-3.05,77.35-3.05s14.93,4.92,12.55,19.93Z"/><path class="cls-3" d="M161.07,176.53s11.53,60.94,17.98,65.01c6.45,4.07,40.37,5.77,43.42,4.41,3.05-1.36,62.42-66.83,62.42-66.83"/><path class="cls-3" d="M177.36,250.07l34.25,2.32s11.53,4.07,24.09-9.5c12.55-13.57,49.19-51.57,51.9-57.67,2.71-6.11,28.84-133.66,28.84-133.66,0,0,2.04-11.53-6.11-20.35-8.14-8.82-9.52-9.03-71.42-9.03"/><path class="cls-2" d="M171.09,320.28s21.34-1.82,51.89,8.44"/><path class="cls-2" d="M169.51,328.84s21.34-1.82,51.89,8.44"/><path class="cls-2" d="M162.97,352.16s21.34-1.82,51.89,8.44"/><path class="cls-2" d="M160.95,360.73s21.34-1.82,51.89,8.44"/><path class="cls-2" d="M155.14,384.76s21.34-1.82,51.89,8.44"/><path class="cls-2" d="M153.28,393.32s21.34-1.82,51.89,8.44"/><path class="cls-2" d="M155.98,376.19s13.65-.65,37.15,5.2"/><path class="cls-2" d="M158.31,368.28s13.65-.65,37.15,5.2"/><path class="cls-2" d="M165.1,344.29s13.65-.65,37.15,5.2"/><path class="cls-2" d="M167.23,336.1s13.65-.65,37.15,5.2"/><path class="cls-2" d="M140.14,433.8c11.08.76,88.46,15.22,101.68,22.33"/><path class="cls-2" d="M137.73,440.04c11.81,1.31,83.37,16.89,102.46,23.26"/><path class="cls-2" d="M223.89,450.26s-4.14-8.06-3.8-13.66,15.94-81.93,15.94-81.93c0,0,8.65-55.3,9.16-62.42.51-7.12.68-26.63,11.87-41.22,11.2-14.59,52.24-57.5,54.28-65.47s21.54-105.84,21.54-105.84c0,0,8.99-31.72,0-42.24-8.99-10.52-17.17-13.3-43.78-14.62"/><path class="cls-2" d="M272.91,286.23c-1.93-3.94,4.74-37.23,12.54-47.62"/><line class="cls-1" x1="355.66" y1="152.15" x2="365.88" y2="152.15"/><line class="cls-1" x1="354.52" y1="165.46" x2="364.1" y2="165.46"/><line class="cls-1" x1="351.83" y1="177.08" x2="361.66" y2="177.08"/><line class="cls-1" x1="349.52" y1="185.47" x2="358.92" y2="185.47"/><line class="cls-4" x1="348.11" y1="188.53" x2="357.52" y2="188.53"/><line class="cls-2" x1="346.05" y1="192.03" x2="355.29" y2="192.03"/><line class="cls-1" x1="355.66" y1="141.71" x2="366.69" y2="141.71"/><line class="cls-4" x1="355.47" y1="137.57" x2="366.5" y2="137.57"/><line class="cls-4" x1="355.66" y1="146.38" x2="366.69" y2="146.38"/><line class="cls-4" x1="354.63" y1="157.93" x2="365.66" y2="157.93"/><line class="cls-4" x1="351.23" y1="171.56" x2="362.26" y2="171.56"/><line class="cls-4" x1="349.12" y1="181.4" x2="360.15" y2="181.4"/><line class="cls-2" x1="354.22" y1="132.78" x2="364.74" y2="132.78"/><path class="cls-2" d="M345.27,192.03c1.89.29,5.43-12.74,7.91-29.11,2.48-16.36,2.96-29.86,1.07-30.14l-8.97,59.25Z"/><path class="cls-2" d="M364.26,132.78c1.89.29,3.7,13.78,1.22,30.14-2.48,16.36-8.31,29.39-10.2,29.11"/></svg>