<?xml version="1.0" encoding="UTF-8"?><svg id="notes" xmlns="http://www.w3.org/2000/svg" viewBox="0 0 1690 703.09"><defs><style>.cls-1{fill:#fff;}.cls-1,.cls-2{stroke-width:0px;}.cls-2{fill:#27284d;}</style></defs><path class="cls-1" d="M200.57,225.68h-40.02v107.02H63.31V0h156.34c42.34,0,73.05,10.24,94.92,29.78,23.73,20.94,37.22,50.25,37.22,87.01,0,41.88-22.8,75.38-57.7,93.99l71.66,121.91h-107.49l-57.7-107.02ZM160.56,151.23h55.84c23.73,0,38.62-13.03,38.62-35.83s-14.42-34.9-39.55-34.9h-54.91v70.73Z"/><path class="cls-1" d="M361.57,213.58c0-71.66,51.65-126.1,126.56-126.1,37.22,0,65.61,12.1,87.48,32.11,28.85,26.52,42.34,68.87,41.41,115.86h-169.37c5.12,27.45,20.01,44.2,46.53,44.2,15.36,0,26.52-6.05,33.04-17.68h85.15c-5.12,21.4-21.87,42.34-45.14,57.23-21.87,13.96-45.6,20.01-75.85,20.01-77.71,0-129.82-53.04-129.82-125.63ZM447.65,188.92h81.89c-3.72-26.52-18.61-42.34-39.55-42.34-24.2,0-37.69,16.29-42.34,42.34Z"/><path class="cls-1" d="M722.64,127.96h1.4c19.08-26.06,43.27-40.02,76.31-40.02,54.91,0,83.29,36.76,83.29,91.2v153.55h-87.94v-132.15c0-24.66-10.24-40.95-33.04-40.95s-35.83,19.54-35.83,45.14v127.96h-87.94V95.39h83.76v32.57Z"/><path class="cls-1" d="M896.2,95.39h30.71V18.61h86.08v76.78h45.14v53.05h-45.14v96.32c0,23.73,16.75,24.2,44.2,22.34v64.68c-13.49,3.26-27.45,5.58-43.27,5.58-57.7,0-87.01-16.29-87.01-73.05v-115.86h-30.71v-53.05Z"/><path class="cls-1" d="M1226.57,306.64h-.93c-15.82,21.87-40.95,32.11-71.66,32.11-45.6,0-79.1-24.66-79.1-71.19,0-52.58,40.48-67.94,86.08-73.05,50.25-5.58,63.75-11.63,63.75-26.52,0-13.03-6.05-22.8-25.13-22.8s-28.85,11.17-31.18,28.38h-83.29c1.86-47,38.16-85.62,112.61-85.62,36.29,0,59.56,4.65,77.71,15.82,24.66,15.36,36.76,39.55,36.76,71.19v118.65c0,20.01,1.4,30.71,8.84,35.36v3.72h-86.55c-3.26-5.58-6.05-13.03-7.91-26.06ZM1227.03,246.61v-20.94c-8.38,4.19-19.08,7.91-33.97,11.17-25.59,5.58-33.5,13.03-33.5,26.99,0,15.82,13.03,22.8,27.45,22.8,20.47,0,40.02-11.63,40.02-40.02Z"/><path class="cls-1" d="M1345.68,0h90.27v332.7h-90.27V0Z"/><path class="cls-1" d="M1453.62,255.92h84.22c1.4,19.54,13.49,31.18,35.83,31.18,17.22,0,30.24-6.05,30.24-20.47,0-19.54-27.45-21.87-58.16-26.52-40.02-6.05-86.08-16.75-86.08-76.31,0-48.86,49.79-75.85,107.95-75.85,72.12,0,109.81,26.99,113.07,73.52h-82.83c-2.33-17.68-15.36-21.4-29.78-21.4-13.03,0-25.13,5.12-25.13,17.22,0,13.49,21.87,16.29,48.86,20.01,43.27,6.05,98.18,15.82,98.18,81.89,0,56.77-51.65,81.43-116.79,81.43-70.26,0-119.12-30.25-119.58-84.69Z"/><path class="cls-2" d="M65.41,356.62h98.11l66.83,194.33h.94l37.92-194.33h94.32l-65.41,338.89h-101.43l-63.52-195.75h-.94l-37.92,195.75H0l65.41-338.89Z"/><path class="cls-2" d="M345.96,594.07c0-82,54.99-147.41,140.77-147.41,61.62,0,120.86,33.65,121.34,109.96.48,83.42-55.45,146.46-142.19,146.46-59.72,0-119.92-33.18-119.92-109.01ZM467.3,643.36c38.86,0,51.66-56.4,51.19-89.58,0-23.7-8.05-46.92-33.64-46.92-38.39,0-50.72,59.72-50.24,90.53,0,24.65,7.58,45.97,32.7,45.97Z"/><path class="cls-2" d="M619.89,453.78h89.58l5.21,87.69c.94,19.43,1.9,51.66,1.9,51.66h.94s11.85-33.65,20.38-53.56l37.44-85.79h74.41l3.79,85.79c.95,21.33,1.9,54.51,1.9,54.51h.94s12.8-33.18,21.33-52.61l38.86-87.69h90.53l-118.96,241.73h-84.37l-7.11-101.43c-1.42-19.91-1.9-47.4-1.9-47.4h-.94s-9.48,28.44-17.54,47.4l-43.6,101.43h-83.89l-28.91-241.73Z"/></svg>