<?xml version="1.0" encoding="UTF-8"?><svg id="txt" xmlns="http://www.w3.org/2000/svg" viewBox="0 0 1690 687.02"><defs><style>.cls-1{fill:#fff;}.cls-1,.cls-2{stroke-width:0px;}.cls-2{fill:#27284d;}</style></defs><path class="cls-2" d="M199.85,225.76h-40.03v107.05H62.54V0h156.4c42.36,0,73.08,10.24,94.96,29.79,23.74,20.94,37.24,50.27,37.24,87.05,0,41.89-22.81,75.4-57.72,94.02l71.68,121.95h-107.52l-57.72-107.05ZM159.82,151.27h55.86c23.74,0,38.64-13.03,38.64-35.84s-14.43-34.92-39.56-34.92h-54.93v70.76Z"/><path class="cls-2" d="M360.94,213.65c0-71.68,51.67-126.14,126.61-126.14,37.23,0,65.63,12.11,87.51,32.13,28.86,26.53,42.36,68.89,41.43,115.9h-169.43c5.12,27.45,20.02,44.21,46.55,44.21,15.36,0,26.53-6.05,33.05-17.68h85.18c-5.12,21.41-21.88,42.36-45.15,57.24-21.88,13.97-45.61,20.02-75.87,20.02-77.73,0-129.87-53.06-129.87-125.68ZM447.06,188.98h81.93c-3.73-26.53-18.62-42.36-39.56-42.36-24.21,0-37.7,16.29-42.36,42.36Z"/><path class="cls-2" d="M722.18,128h1.4c19.08-26.06,43.29-40.03,76.34-40.03,54.93,0,83.32,36.77,83.32,91.24v153.6h-87.98v-132.19c0-24.66-10.24-40.95-33.05-40.95s-35.85,19.55-35.85,45.15v128h-87.98V95.42h83.79v32.58Z"/><path class="cls-2" d="M895.84,95.42h30.72V18.61h86.11v76.81h45.16v53.06h-45.16v96.35c0,23.74,16.76,24.21,44.22,22.34v64.71c-13.5,3.26-27.47,5.58-43.29,5.58-57.72,0-87.05-16.29-87.05-73.08v-115.9h-30.72v-53.06Z"/><path class="cls-2" d="M1226.35,306.74h-.93c-15.82,21.88-40.97,32.11-71.68,32.11-45.63,0-79.14-24.66-79.14-71.21,0-52.6,40.5-67.97,86.11-73.08,50.27-5.58,63.77-11.63,63.77-26.53,0-13.03-6.05-22.81-25.13-22.81s-28.87,11.18-31.19,28.39h-83.32c1.87-47,38.18-85.65,112.64-85.65,36.31,0,59.58,4.66,77.74,15.82,24.66,15.37,36.77,39.56,36.77,71.22v118.69c0,20.02,1.39,30.72,8.84,35.37v3.73h-86.58c-3.26-5.58-6.05-13.03-7.91-26.06ZM1226.81,246.69v-20.94c-8.37,4.18-19.08,7.91-33.97,11.16-25.61,5.59-33.52,13.03-33.52,27,0,15.82,13.03,22.81,27.47,22.81,20.47,0,40.02-11.63,40.02-40.03Z"/><path class="cls-2" d="M1345.54,0h90.31v332.81h-90.31V0Z"/><path class="cls-2" d="M1453.53,256h84.26c1.4,19.56,13.5,31.19,35.84,31.19,17.23,0,30.26-6.05,30.26-20.48,0-19.55-27.47-21.87-58.18-26.53-40.03-6.05-86.11-16.76-86.11-76.34,0-48.87,49.81-75.87,107.98-75.87,72.15,0,109.85,27,113.11,73.55h-82.85c-2.32-17.69-15.37-21.42-29.79-21.42-13.03,0-25.14,5.13-25.14,17.23,0,13.5,21.88,16.29,48.88,20.02,43.29,6.05,98.21,15.82,98.21,81.92,0,56.79-51.66,81.47-116.84,81.47-70.28,0-119.16-30.26-119.63-84.72Z"/><path class="cls-1" d="M64.23,346.76h96.35l65.64,190.84h.93l37.23-190.84h92.64l-64.24,332.81h-99.61l-62.38-192.24h-.93l-37.24,192.24H0l64.23-332.81Z"/><path class="cls-1" d="M339.83,579.96c0-80.52,54-144.76,138.25-144.76,60.51,0,118.69,33.05,119.16,107.98.47,81.93-54.46,143.84-139.64,143.84-58.65,0-117.77-32.58-117.77-107.06ZM459,628.37c38.17,0,50.74-55.4,50.27-87.98,0-23.27-7.91-46.08-33.05-46.08-37.7,0-49.81,58.66-49.34,88.9,0,24.21,7.44,45.16,32.11,45.16Z"/><path class="cls-1" d="M608.91,442.18h87.98l5.12,86.11c.93,19.08,1.86,50.74,1.86,50.74h.93s11.64-33.05,20.02-52.6l36.77-84.26h73.08l3.73,84.26c.93,20.94,1.86,53.52,1.86,53.52h.93s12.57-32.58,20.94-51.66l38.18-86.11h88.9l-116.84,237.39h-82.85l-6.98-99.61c-1.4-19.55-1.86-46.55-1.86-46.55h-.93s-9.31,27.93-17.22,46.55l-42.83,99.61h-82.39l-28.39-237.39Z"/></svg>