<?xml version="1.0" encoding="UTF-8"?><svg id="notes" xmlns="http://www.w3.org/2000/svg" xmlns:xlink="http://www.w3.org/1999/xlink" viewBox="0 0 1690 532.17"><defs><style>.cls-1{filter:url(#drop-shadow-1);}.cls-2{fill:#c2520b;}.cls-2,.cls-3,.cls-4{stroke-width:0px;}.cls-3{fill:#27284d;}.cls-4{fill:#ff6c0e;}</style><filter id="drop-shadow-1" filterUnits="userSpaceOnUse"><feOffset dx="0" dy="0"/><feGaussianBlur result="blur" stdDeviation="5"/><feFlood flood-color="#000" flood-opacity=".5"/><feComposite in2="blur" operator="in"/><feComposite in="SourceGraphic"/></filter></defs><path class="cls-4" d="M690.63,178.23h-26.85v71.81h-65.25V26.81h104.9c28.41,0,49.02,6.87,63.69,19.98,15.92,14.05,24.98,33.72,24.98,58.38,0,28.1-15.3,50.58-38.71,63.07l48.08,81.8h-72.12l-38.71-71.81ZM663.78,128.27h37.47c15.92,0,25.91-8.74,25.91-24.04s-9.68-23.42-26.54-23.42h-36.84v47.46Z"/><path class="cls-4" d="M798.65,170.11c0-48.08,34.66-84.61,84.92-84.61,24.98,0,44.02,8.12,58.7,21.54,19.36,17.8,28.41,46.21,27.79,77.74h-113.65c3.43,18.42,13.42,29.66,31.22,29.66,10.3,0,17.8-4.06,22.17-11.86h57.14c-3.43,14.36-14.67,28.41-30.28,38.4-14.67,9.37-30.6,13.42-50.89,13.42-52.14,0-87.11-35.59-87.11-84.3ZM856.41,153.56h54.95c-2.5-17.8-12.49-28.41-26.54-28.41-16.24,0-25.29,10.93-28.41,28.41Z"/><path class="cls-4" d="M1040.92,112.66h.94c12.8-17.48,29.04-26.85,51.2-26.85,36.84,0,55.89,24.66,55.89,61.19v103.03h-59.01v-88.67c0-16.55-6.87-27.47-22.17-27.47s-24.04,13.11-24.04,30.28v85.86h-59.01V90.81h56.2v21.86Z"/><path class="cls-4" d="M1157.38,90.81h20.61v-51.52h57.76v51.52h30.28v35.59h-30.28v64.63c0,15.92,11.24,16.24,29.66,14.99v43.4c-9.05,2.19-18.42,3.75-29.04,3.75-38.71,0-58.38-10.93-58.38-49.02v-77.74h-20.61v-35.59Z"/><path class="cls-4" d="M1379.04,232.55h-.62c-10.62,14.67-27.47,21.54-48.08,21.54-30.6,0-53.08-16.55-53.08-47.77,0-35.28,27.16-45.58,57.76-49.02,33.72-3.75,42.77-7.81,42.77-17.8,0-8.74-4.06-15.3-16.86-15.3s-19.36,7.49-20.92,19.05h-55.89c1.25-31.53,25.6-57.45,75.56-57.45,24.35,0,39.96,3.12,52.14,10.61,16.55,10.3,24.66,26.54,24.66,47.77v79.61c0,13.42.94,20.61,5.93,23.73v2.5h-58.07c-2.19-3.75-4.06-8.74-5.31-17.48ZM1379.36,192.28v-14.05c-5.62,2.81-12.8,5.31-22.79,7.49-17.17,3.75-22.48,8.74-22.48,18.11,0,10.61,8.74,15.3,18.42,15.3,13.74,0,26.85-7.81,26.85-26.85Z"/><path class="cls-4" d="M1458.97,26.81h60.57v223.23h-60.57V26.81Z"/><path class="cls-4" d="M1531.4,198.52h56.51c.94,13.11,9.05,20.92,24.04,20.92,11.55,0,20.29-4.06,20.29-13.74,0-13.11-18.42-14.67-39.03-17.8-26.85-4.06-57.76-11.24-57.76-51.2,0-32.78,33.41-50.89,72.43-50.89,48.39,0,73.68,18.11,75.87,49.33h-55.57c-1.56-11.86-10.3-14.36-19.98-14.36-8.74,0-16.86,3.43-16.86,11.55,0,9.05,14.67,10.93,32.78,13.43,29.04,4.06,65.88,10.61,65.88,54.95,0,38.09-34.66,54.64-78.37,54.64-47.14,0-79.93-20.29-80.24-56.82Z"/><path class="cls-3" d="M599.93,266.09h65.83l44.84,130.39h.63l25.44-130.39h63.29l-43.89,227.39h-68.06l-42.62-131.35h-.63l-25.44,131.35h-63.29l43.89-227.39Z"/><path class="cls-3" d="M788.18,425.42c0-55.02,36.89-98.91,94.45-98.91,41.35,0,81.09,22.58,81.41,73.78.32,55.97-37.21,98.27-95.41,98.27-40.07,0-80.46-22.26-80.46-73.15ZM869.59,458.49c26.08,0,34.66-37.84,34.35-60.11,0-15.9-5.4-31.49-22.57-31.49-25.76,0-34.03,40.07-33.71,60.75,0,16.54,5.09,30.85,21.94,30.85Z"/><path class="cls-3" d="M971.98,331.28h60.11l3.5,58.83c.63,13.04,1.27,34.66,1.27,34.66h.63s7.95-22.58,13.68-35.94l25.12-57.56h49.93l2.54,57.56c.64,14.31,1.27,36.58,1.27,36.58h.63s8.59-22.26,14.32-35.3l26.08-58.83h60.74l-79.82,162.19h-56.61l-4.77-68.06c-.95-13.36-1.27-31.8-1.27-31.8h-.63s-6.36,19.08-11.77,31.8l-29.26,68.06h-56.29l-19.4-162.19Z"/><circle class="cls-3" cx="266.09" cy="266.09" r="266.09"/><g class="cls-1"><polygon class="cls-4" points="393.89 266.09 216.5 266.09 154.41 88.7 331.81 88.7 393.89 266.09"/><polygon class="cls-2" points="331.81 443.48 154.41 443.48 216.5 266.09 393.89 266.09 331.81 443.48"/></g></svg>